<?xml version="1.0" encoding="UTF-8" standalone="no"?>
<!-- Created with Inkscape (http://www.inkscape.org/) -->

<svg
   xmlns:dc="http://purl.org/dc/elements/1.1/"
   xmlns:cc="http://creativecommons.org/ns#"
   xmlns:rdf="http://www.w3.org/1999/02/22-rdf-syntax-ns#"
   xmlns:svg="http://www.w3.org/2000/svg"
   xmlns="http://www.w3.org/2000/svg"
   xmlns:sodipodi="http://sodipodi.sourceforge.net/DTD/sodipodi-0.dtd"
   xmlns:inkscape="http://www.inkscape.org/namespaces/inkscape"
   width="256px"
   height="256px"
   viewBox="0 0 256 256"
   version="1.1"
   id="SVGRoot"
   inkscape:version="0.92.3 (2405546, 2018-03-11)"
   sodipodi:docname="dhl_icon.svg">
  <title
     id="title6417">DHL_DSC_Supply_Chain_Security_Logo</title>
  <sodipodi:namedview
     id="base"
     pagecolor="#ffffff"
     bordercolor="#666666"
     borderopacity="1"
     inkscape:pageopacity="0.0"
     inkscape:pageshadow="2"
     inkscape:zoom="2"
     inkscape:cx="98.710678"
     inkscape:cy="129.46447"
     inkscape:document-units="px"
     inkscape:current-layer="layer1"
     showgrid="false"
     inkscape:window-width="1366"
     inkscape:window-height="706"
     inkscape:window-x="-8"
     inkscape:window-y="-8"
     inkscape:window-maximized="1"
     inkscape:grid-bbox="true"
     inkscape:pagecheckerboard="true" />
  <defs
     id="defs5809" />
  <metadata
     id="metadata5812">
    <rdf:RDF>
      <cc:Work
         rdf:about="">
        <dc:format>image/svg+xml</dc:format>
        <dc:type
           rdf:resource="http://purl.org/dc/dcmitype/StillImage" />
        <dc:title>DHL_DSC_Supply_Chain_Security_Logo</dc:title>
      </cc:Work>
    </rdf:RDF>
  </metadata>
  <g
     id="layer1"
     inkscape:groupmode="layer"
     inkscape:label="Layer 1">
    <path
       style="opacity:1;fill:#ffcd00;fill-opacity:1;stroke-width:0;stroke-miterlimit:4;stroke-dasharray:none"
       d="M 127.69922 6.1875 A 123.43567 122.3985 0 0 0 4.2636719 128.58594 A 123.43567 122.3985 0 0 0 127.69922 250.98438 A 123.43567 122.3985 0 0 0 251.13477 128.58594 A 123.43567 122.3985 0 0 0 127.69922 6.1875 z M 127.46875 13.966797 C 157.83278 13.966797 186.95322 25.896801 208.42383 47.134766 C 229.89444 68.372741 241.95703 97.177872 241.95703 127.21289 C 241.95703 142.23041 241.23646 151.96387 235.53711 165.57422 C 220.81985 166.35183 54.104592 166.00087 21.695312 166.49023 C 15.995966 152.87989 12.980469 142.23041 12.980469 127.21289 C 12.980469 97.177862 25.043058 68.372741 46.513672 47.134766 C 67.984277 25.896801 97.10472 13.966797 127.46875 13.966797 z "
       id="path5761" />
    <path
       style="opacity:1;fill:#b6ae92;fill-opacity:1;stroke-width:0;stroke-miterlimit:4;stroke-dasharray:none"
       d="m 97.45213,45.433873 c 4.88146,-0.658143 13.31992,-5.604015 18.53566,-9.085154 8.51294,-5.6818 16.52845,-11.401043 20.25792,-9.799428 10.30476,4.425394 14.90948,5.789261 22.81193,9.266859 3.95122,1.738794 10.80101,-5.182251 23.25248,-6.392731 4.1996,-0.408265 -1.64431,18.279367 -13.40774,41.734775 -11.76343,23.455409 -29.44639,51.678606 -48.92494,70.341486 -9.22577,8.96758 -29.65768,27.6522 -35.477133,22.47145 C 79.281643,159.3252 77.863549,157.156 75.083416,149.74378 71.273739,139.58669 71.719003,131.15312 71.38866,126.31724 69.990671,105.85202 72.390624,81.403202 81.031264,55.140162 86.779095,37.669687 91.99652,46.647428 97.45213,45.433873 Z"
       id="path5774"
       inkscape:connector-curvature="0"
       sodipodi:nodetypes="cssssscssssc" />
    <path
       style="opacity:1;fill:#ffffff;fill-opacity:1;stroke-width:0;stroke-miterlimit:4;stroke-dasharray:none"
       d="m 87.160748,160.13101 c 0.06906,0.0139 0.135714,0.0428 0.205207,0.0536 5.247995,0.81137 12.925435,-5.89397 17.402215,-10.03562 4.41024,-4.08011 10.69651,-9.82895 14.88037,-14.80082 14.04123,-13.86086 29.933,-39.168571 41.74771,-61.128468 5.90737,-10.979944 13.85978,-27.525198 16.98768,-34.981917 2.45668,-7.197932 1.22236,-7.213783 -5.15409,-4.444329 -3.90786,1.448555 -11.86001,5.286658 -13.72815,4.359879 C 152.25601,35.558773 137.36082,29.072407 133.063,28.680122 Z"
       id="path5795"
       inkscape:connector-curvature="0"
       sodipodi:nodetypes="ccscsccscc" />
    <path
       style="opacity:1;fill:#fecc05;fill-opacity:1;stroke-width:0;stroke-miterlimit:4;stroke-dasharray:none"
       d="M 87.160748,160.13101 133.063,28.680092 c -0.006,-4.07e-4 -0.0157,-0.004 -0.0211,-0.004 -2.79509,0.720801 -4.57345,2.47616 -8.57377,4.896397 -2.03411,1.35004 -4.7169,3.014997 -7.36758,4.622117 -2.65068,1.60711 -5.26926,3.156392 -7.17499,4.275082 -1.43401,0.895087 -3.15446,1.835345 -5.67267,2.967853 -1.78043,0.924774 -5.43025,2.507434 -8.23124,2.302955 -2.73747,-0.199838 -3.47972,-0.95724 -3.47972,-0.95724 -2.3853,-0.607457 -2.83423,-0.743664 -4.42513,-0.198032 -1.590934,0.545642 -2.578218,3.308192 -5.295784,11.15792 -8.170536,23.600711 -9.656007,42.034774 -9.993453,60.469506 -0.271326,14.82208 2.788028,25.94604 4.852763,30.3234 0.486191,1.03078 4.336337,10.56303 9.480401,11.59532 z"
       id="path5774-8"
       inkscape:connector-curvature="0"
       sodipodi:nodetypes="ccccsccsccssccc" />
    <text
       xml:space="preserve"
       style="font-style:normal;font-weight:normal;font-size:16.87901497px;line-height:1.25;font-family:sans-serif;letter-spacing:0px;word-spacing:0px;fill:#000000;fill-opacity:1;stroke:none;stroke-width:0.42197534"
       x="36.558918"
       y="189.60381"
       id="text5799"
       transform="scale(1.0114817,0.98864865)"><tspan
         sodipodi:role="line"
         id="tspan5797"
         x="36.558918"
         y="189.60381"
         style="stroke-width:0.42197534">Supply Chain Security</tspan></text>
    <text
       xml:space="preserve"
       style="font-style:normal;font-weight:normal;font-size:14.5415802px;line-height:1.25;font-family:sans-serif;letter-spacing:0px;word-spacing:0px;fill:#4a4532;fill-opacity:1;stroke:none;stroke-width:0.36353949"
       x="74.63575"
       y="198.43294"
       id="text5803"
       transform="scale(0.97357979,1.0271372)"><tspan
         sodipodi:role="line"
         id="tspan5801"
         x="74.63575"
         y="198.43294"
         style="fill:#4a4532;fill-opacity:1;stroke-width:0.36353949">Shielding Assets</tspan></text>
    <text
       xml:space="preserve"
       style="font-style:normal;font-weight:normal;font-size:10.1914835px;line-height:1.25;font-family:sans-serif;letter-spacing:0px;word-spacing:0px;fill:#4a4532;fill-opacity:1;stroke:none;stroke-width:0.25478712"
       x="86.754463"
       y="209.9207"
       id="text5807"
       transform="scale(0.95451095,1.0476569)"><tspan
         sodipodi:role="line"
         id="tspan5805"
         x="86.754463"
         y="209.9207"
         style="fill:#4a4532;fill-opacity:1;stroke-width:0.25478712">Delivering Solutions</tspan></text>
  </g>
</svg>
